# xmcd
#
# Track frame offsets:
#	150
#	17995
#	41747
#	60945
#	80735
#	96895
#	110710
#	128772
#	142707
#	159377
#
# Disc length: 2322 seconds
#
# Revision: 4
# Processed by: cddbd v1.5.2PL0 Copyright (c) Steve Scherf et al.
# Submitted via: audiograbber 1.83.01
#
DISCID=7d09100a
DTITLE=Tammy Wynette - Without Walls
DYEAR=1994
DGENRE=Oldies
TTITLE0=If It's The Last Thing I Do
TTITLE1=Tammy Wynette and Elton John_A Woman's Needs
TTITLE2=Tammy Wynette and Sting_Every Breath You Take
TTITLE3=Tammy Wynette and Lyle Lovett_If You Were To Wake Up
TTITLE4=Tammy Wynette and Joe Diffie_Glass Houses
TTITLE5=Tammy Wynette and Wynonna_Girl Thang
TTITLE6=Tammy Wynette and Cliff Richard_This Love
TTITLE7=Tammy Wynette and Smokey Robinson_I Second That Emotion
TTITLE8=Tammy Wynette and Aaron Neville_All I Am To You
TTITLE9=What Do They Know
EXTD=
EXTT0=
EXTT1=With Elton John
EXTT2=With Sting
EXTT3=With Lyle Lovett
EXTT4=With Joe Diffie
EXTT5=With Wynonna
EXTT6=With Cliff Richard
EXTT7=With Smokey Robinson
EXTT8=With Aaron Neville
EXTT9=
PLAYORDER=
